<svg width="84" height="84" fill="none" xmlns="http://www.w3.org/2000/svg"><circle cx="42" cy="42" r="40" fill="#fff" stroke="#F37335" stroke-width="3"/><path d="M47.684 64.056c-.382.095-.772.18-1.159.25a1.864 1.864 0 00-1.494 2.171 1.861 1.861 0 002.173 1.491 22.68 22.68 0 001.382-.3 1.861 1.861 0 10-.902-3.612zm14.834-28.347c.125.397.364.722.666.946a1.709 1.709 0 001.591.25c.936-.329 1.444-1.393 1.134-2.38a24.32 24.32 0 00-.465-1.34c-.366-.966-1.405-1.436-2.32-1.05-.916.386-1.362 1.482-.996 2.448.14.369.272.748.39 1.126zM54.01 60.35c-.34.246-.692.484-1.045.708-.923.583-1.239 1.875-.707 2.885.145.275.337.5.559.671a1.79 1.79 0 002.075.103c.42-.266.838-.548 1.243-.842.888-.642 1.132-1.953.545-2.927-.587-.973-1.782-1.24-2.67-.598zm13.971-18.569c-.043-1.023-.969-1.82-2.068-1.78-1.099.04-1.955.903-1.911 1.926.016.39.02.788.01 1.178-.015.642.322 1.214.846 1.557.312.205.691.329 1.102.337 1.099.023 2.01-.788 2.034-1.812.011-.467.007-.94-.013-1.406zM62.18 55.394c-.909-.653-2.194-.476-2.875.392-.26.332-.535.66-.816.977a1.907 1.907 0 00.233 2.769c.049.04.099.076.15.11.858.58 2.05.446 2.743-.333.336-.377.663-.769.974-1.166.68-.867.497-2.098-.41-2.75zm2.562-7.307c-.946-.311-1.953.24-2.25 1.231-.113.379-.238.76-.374 1.132-.298.82-.013 1.722.642 2.206.12.088.252.163.396.22.926.37 1.963-.116 2.316-1.087.16-.443.31-.896.446-1.346.296-.99-.23-2.046-1.176-2.356zM38.505 63.902a20.726 20.726 0 01-5.21-1.684c-.02-.01-.037-.022-.057-.031-.39-.187-.778-.386-1.155-.595l-.006-.003a21.61 21.61 0 01-2.02-1.284c-9.555-6.844-11.853-20.315-5.122-30.03a21.282 21.282 0 015.21-5.27l.073-.051c6.958-4.875 16.407-5.203 23.795-.194l-1.587 2.331c-.44.65-.17 1.122.603 1.051l6.893-.627c.774-.07 1.236-.75 1.028-1.51l-1.85-6.781c-.208-.76-.739-.852-1.18-.203l-1.59 2.337c-5.423-3.7-11.927-5.112-18.382-3.974-.65.114-1.291.254-1.923.417l-.013.003-.073.02c-5.567 1.454-10.423 4.755-13.889 9.465-.029.035-.059.07-.087.108a24.697 24.697 0 00-.877 1.287c-.022.033-.038.066-.057.1A25.783 25.783 0 0017.026 43.8v.053c.023.518.063 1.043.118 1.56.003.034.01.065.016.099.057.52.128 1.04.217 1.562.906 5.316 3.373 10.1 7.068 13.821l.026.028.01.008a25.712 25.712 0 003.236 2.75 24.825 24.825 0 0010.071 4.285c1.105.202 2.16-.546 2.357-1.668.198-1.123-.536-2.196-1.64-2.397z" fill="#F37335"/><path d="M40.703 26c-.94 0-1.703.738-1.703 1.647v16.41l15.515 7.759c.25.125.517.184.78.184a1.71 1.71 0 001.515-.891c.431-.808.105-1.802-.731-2.219l-13.674-6.838V27.647c0-.909-.761-1.647-1.702-1.647z" fill="#F37335"/></svg>