<svg width="84" height="84" fill="none" xmlns="http://www.w3.org/2000/svg"><circle cx="42" cy="42" r="40" fill="#fff" stroke="#FBB731" stroke-width="3"/><path fill-rule="evenodd" clip-rule="evenodd" d="M53.34 48.862a27.97 27.97 0 008.792 1.4A3.873 3.873 0 0166 54.133v9A3.873 3.873 0 0162.132 67C37.247 67 17 46.753 17 21.868A3.873 3.873 0 0120.868 18h9.027a3.873 3.873 0 013.868 3.868c0 3.018.475 5.981 1.406 8.802a3.905 3.905 0 01-.957 3.946l-4.088 5.431c3.363 6.34 7.448 10.422 13.829 13.826l5.562-4.2c.903-.919 2.456-1.283 3.825-.81zm8.792 15.56c.709 0 1.29-.579 1.29-1.29v-9c0-.713-.58-1.29-1.29-1.29-3.296 0-6.53-.516-9.614-1.535a1.294 1.294 0 00-1.313.307l-6.35 4.812c-.394.3-.928.346-1.364.119-7.566-3.876-12.211-8.523-16.036-16.036a1.29 1.29 0 01.119-1.362l4.693-6.215c.472-.49.593-.988.444-1.47a30.615 30.615 0 01-1.527-9.594c0-.711-.58-1.29-1.29-1.29h-9.026c-.709 0-1.29.579-1.29 1.29 0 23.464 19.09 42.553 42.554 42.553z" fill="#FBB731"/></svg>