<svg width="84" height="84" fill="none" xmlns="http://www.w3.org/2000/svg"><circle cx="42" cy="42" r="40" fill="#fff" stroke="#F37335" stroke-width="3"/><path fill-rule="evenodd" clip-rule="evenodd" d="M49 32c0 3.308-2.691 6-6 6-3.308 0-6-2.692-6-6s2.692-6 6-6c3.309 0 6 2.692 6 6zm-3 0c0-1.654-1.346-3-3-3s-3 1.346-3 3 1.346 3 3 3 3-1.346 3-3z" fill="#F37335"/><path fill-rule="evenodd" clip-rule="evenodd" d="M61.53 48.365H51.52c4.675-4.457 8.927-8.826 8.927-16.435C60.447 21.677 52.741 14 42.5 14c-10.261 0-17.948 7.7-17.948 17.93 0 7.61 4.253 11.978 8.928 16.435H23.47L18 65h49l-5.47-16.635zM27.545 31.93c0-8.658 6.29-14.942 14.956-14.942s14.956 6.284 14.956 14.942c0 6.698-3.913 10.404-8.567 14.812-2.076 1.967-4.3 4.073-6.389 6.646-2.035-2.507-4.212-4.576-6.328-6.588-4.82-4.582-8.628-8.201-8.628-14.87zm6.58 26.396H23.343l-1.212 3.686H62.87l-1.212-3.686H50.876v-2.988h9.799l-1.31-3.985H48.482v-.066c-3.09 3.06-4.408 4.91-5.292 6.148a23.12 23.12 0 01-.69.936 22.855 22.855 0 01-.675-.916c-.882-1.235-2.219-3.108-5.308-6.169v.067H25.636l-1.31 3.985h9.8v2.988z" fill="#F37335"/></svg>