<svg width="18" height="18" fill="none" xmlns="http://www.w3.org/2000/svg"><path fill-rule="evenodd" clip-rule="evenodd" d="M17.48 2.108c.159 0 .308.073.406.198a.533.533 0 01.101.445L16.43 9.778a.521.521 0 01-.507.411H5.5l.4 1.757h9.99c.286 0 .519.236.519.527a.523.523 0 01-.52.527H5.485a.52.52 0 01-.506-.409L2.356 1.054H.52A.523.523 0 010 .527C0 .236.232 0 .52 0h2.25c.241 0 .45.17.505.409l.387 1.7H17.48zM5.26 9.135h10.248l1.324-5.973H3.902l1.357 5.973zM6 16c0-1.103.897-2 2-2s2 .897 2 2-.897 2-2 2-2-.897-2-2zm1.09 0a.91.91 0 001.82 0 .91.91 0 00-1.82 0zM12 16c0-1.103.897-2 2-2s2 .897 2 2-.897 2-2 2-2-.897-2-2zm1.09 0a.91.91 0 001.82 0 .91.91 0 00-1.82 0z" fill="#443737"/></svg>