<svg width="176" height="56" fill="none" xmlns="http://www.w3.org/2000/svg"><path fill="#FBB731" d="M0 0h42v56H0z"/><path fill-rule="evenodd" clip-rule="evenodd" d="M40.5 7h3c10.764.012 19.488 8.736 19.5 19.5a1.5 1.5 0 01-1.5 1.5h-39a1.5 1.5 0 01-1.5-1.5C21.012 15.736 29.736 7.012 40.5 7zm0 3c-8.528.01-15.647 6.509-16.433 15h35.865c-.785-8.491-7.904-14.99-16.432-15h-3zm15 27.108h6c.828 0 1.5.666 1.5 1.487v2.973c-.005 4.102-3.36 7.427-7.5 7.432h-27c-4.14-.005-7.495-3.33-7.5-7.432v-2.973c0-.821.672-1.487 1.5-1.487h21c.325 0 .64.105.9.298l5.1 3.79 5.1-3.79a1.51 1.51 0 01.9-.298zm0 8.92c2.485 0 4.5-1.997 4.5-4.46V40.08h-4l-5.6 4.162a1.511 1.511 0 01-1.8 0L43 40.081H24v1.487c0 2.463 2.015 4.46 4.5 4.46h27z" fill="#443737"/><path d="M61.5 31.036h-39c-.828 0-1.5.68-1.5 1.518a1.51 1.51 0 001.5 1.518h39c.828 0 1.5-.68 1.5-1.518a1.51 1.51 0 00-1.5-1.518zM34.41 15.855c-.839 0-1.518.68-1.518 1.518v1.519a1.518 1.518 0 003.036 0v-1.518c0-.839-.68-1.518-1.518-1.518zm7.59 0c-.838 0-1.518.68-1.518 1.518v1.519a1.518 1.518 0 103.036 0v-1.518c0-.839-.68-1.518-1.518-1.518zm7.59 0c-.838 0-1.518.68-1.518 1.518v1.519a1.518 1.518 0 103.036 0v-1.518c0-.839-.68-1.518-1.518-1.518zM74.704 36V19.08h7.752c1.808 0 3.2.392 4.176 1.176.992.784 1.488 1.856 1.488 3.216 0 .896-.224 1.672-.672 2.328-.448.64-1.072 1.12-1.872 1.44.96.272 1.696.752 2.208 1.44.528.688.792 1.536.792 2.544 0 1.504-.528 2.68-1.584 3.528-1.04.832-2.464 1.248-4.272 1.248h-8.016zm3.552-9.96h3.552c1.824 0 2.736-.704 2.736-2.112 0-1.392-.912-2.088-2.736-2.088h-3.552v4.2zm0 7.2h3.96c.96 0 1.664-.184 2.112-.552.448-.368.672-.928.672-1.68 0-.736-.224-1.288-.672-1.656-.448-.368-1.152-.552-2.112-.552h-3.96v4.44zm20.384 3.024c-2.4 0-4.233-.616-5.496-1.848-1.249-1.232-1.873-3.064-1.873-5.496v-9.84h3.72v9.864c0 1.376.313 2.416.936 3.12.624.688 1.528 1.032 2.712 1.032 2.416 0 3.624-1.384 3.624-4.152V19.08h3.672v9.84c0 2.432-.616 4.264-1.848 5.496-1.232 1.232-3.048 1.848-5.448 1.848zM109.227 36V19.08h7.728c1.888 0 3.344.456 4.368 1.368 1.024.912 1.536 2.184 1.536 3.816 0 1.264-.328 2.32-.984 3.168-.64.832-1.56 1.4-2.76 1.704.848.256 1.544.872 2.088 1.848L123.939 36h-4.104l-2.928-5.4c-.24-.432-.536-.728-.888-.888-.352-.176-.768-.264-1.248-.264h-1.824V36h-3.72zm3.72-9.24h3.336c2 0 3-.8 3-2.4 0-1.584-1-2.376-3-2.376h-3.336v4.776zm21.25 9.504c-1.904 0-3.52-.36-4.848-1.08-1.312-.72-2.312-1.728-3-3.024-.688-1.296-1.032-2.816-1.032-4.56 0-1.792.352-3.344 1.056-4.656.72-1.312 1.752-2.328 3.096-3.048 1.344-.72 2.96-1.08 4.848-1.08 1.184 0 2.304.168 3.36.504 1.072.336 1.944.784 2.616 1.344l-1.2 2.904c-.736-.544-1.488-.928-2.256-1.152-.768-.24-1.6-.36-2.496-.36-1.712 0-3 .48-3.864 1.44-.848.944-1.272 2.312-1.272 4.104 0 1.808.432 3.176 1.296 4.104.88.928 2.176 1.392 3.888 1.392.912 0 1.872-.144 2.88-.432v-3.312h-3.648v-2.688h6.72v8.304c-.832.416-1.792.736-2.88.96a16.148 16.148 0 01-3.264.336zm17.285 0c-1.664 0-3.128-.36-4.392-1.08a7.778 7.778 0 01-2.928-3.048c-.688-1.312-1.032-2.848-1.032-4.608 0-1.76.344-3.288 1.032-4.584.704-1.312 1.68-2.328 2.928-3.048 1.248-.72 2.712-1.08 4.392-1.08 1.68 0 3.144.36 4.392 1.08a7.368 7.368 0 012.928 3.048c.704 1.296 1.056 2.816 1.056 4.56 0 1.76-.352 3.296-1.056 4.608a7.525 7.525 0 01-2.928 3.072c-1.248.72-2.712 1.08-4.392 1.08zm0-3.168c1.408 0 2.504-.488 3.288-1.464.8-.992 1.2-2.36 1.2-4.104 0-1.76-.392-3.12-1.176-4.08-.784-.976-1.888-1.464-3.312-1.464-1.392 0-2.488.488-3.288 1.464-.784.96-1.176 2.32-1.176 4.08 0 1.744.392 3.112 1.176 4.104.8.976 1.896 1.464 3.288 1.464zm17.301 3.168c-1.328 0-2.584-.168-3.768-.504-1.168-.336-2.144-.792-2.928-1.368l1.08-2.928a9.344 9.344 0 002.568 1.248 10.19 10.19 0 003.048.456c1.152 0 1.976-.176 2.472-.528.512-.368.768-.824.768-1.368 0-.464-.176-.832-.528-1.104-.352-.272-.968-.504-1.848-.696l-2.712-.576c-3.024-.64-4.536-2.208-4.536-4.704 0-1.072.288-2.008.864-2.808.576-.816 1.376-1.448 2.4-1.896 1.04-.448 2.24-.672 3.6-.672 1.168 0 2.264.168 3.288.504 1.024.336 1.872.808 2.544 1.416l-1.08 2.736c-1.312-1.04-2.904-1.56-4.776-1.56-1.008 0-1.792.2-2.352.6-.544.384-.816.888-.816 1.512 0 .464.168.84.504 1.128.336.288.92.52 1.752.696l2.712.576c3.104.672 4.656 2.192 4.656 4.56 0 1.056-.288 1.984-.864 2.784-.56.784-1.36 1.4-2.4 1.848-1.024.432-2.24.648-3.648.648z" fill="#443737"/></svg>