<svg width="30" height="27" fill="none" xmlns="http://www.w3.org/2000/svg"><path d="M26.813 15.586l2.386-10.563c.153-.761-.406-1.523-1.219-1.523H8.075l-.457-2.234C7.465.707 6.957.25 6.398.25h-5.18C.509.25 0 .809 0 1.469v.812C0 2.992.508 3.5 1.219 3.5h3.504l3.605 17.469c-.863.508-1.422 1.422-1.422 2.437A2.84 2.84 0 009.75 26.25c1.523 0 2.844-1.27 2.844-2.844 0-.761-.356-1.472-.864-2.031h10.614c-.508.559-.813 1.27-.813 2.031a2.84 2.84 0 002.844 2.844c1.523 0 2.844-1.27 2.844-2.844 0-1.117-.66-2.082-1.625-2.539l.254-1.219c.203-.761-.407-1.523-1.168-1.523H11.07l-.355-1.625h14.879a1.25 1.25 0 001.218-.914z" fill="#FFC725"/></svg>